<svg xmlns="http://www.w3.org/2000/svg" width="720" height="470" viewBox="0 0 720 470" font-family='-apple-system,BlinkMacSystemFont,"Segoe UI","PingFang SC","Hiragino Sans GB",sans-serif'>
<rect width="720" height="470" fill="#fff"/>
<text x="64" y="24" font-size="14" font-weight="700" fill="#1c1917">XIN 的价格不是一个可用的测量</text>
<text x="64" y="42" font-size="11" fill="#57534e">上：日收盘价　下：日成交额（对数轴）。2025-08 至 2026-09，CoinGecko 一手</text>
<line x1="64" y1="87.3" x2="694" y2="87.3" stroke="#e7e5e4" stroke-width="1"/>
<text x="56" y="91.3" font-size="10" fill="#57534e" text-anchor="end">$101.83</text>
<line x1="64" y1="165.4" x2="694" y2="165.4" stroke="#e7e5e4" stroke-width="1"/>
<text x="56" y="169.4" font-size="10" fill="#57534e" text-anchor="end">$68.01</text>
<line x1="64" y1="223.2" x2="694" y2="223.2" stroke="#e7e5e4" stroke-width="1"/>
<text x="56" y="227.2" font-size="10" fill="#57534e" text-anchor="end">$42.97</text>
<polyline points="64.0,90.6 65.7,88.5 67.4,90.6 69.1,90.8 70.7,92.2 72.4,95.3 74.1,93.3 75.8,92.6 77.5,95.8 79.2,91.0 80.8,89.2 82.5,93.1 84.2,93.7 85.9,93.4 87.6,92.4 89.3,93.4 91.0,89.4 92.6,94.3 94.3,96.5 96.0,99.4 97.7,95.2 99.4,99.1 101.1,98.6 102.7,98.8 104.4,99.8 106.1,100.5 107.8,104.8 109.5,105.7 111.2,105.1 112.9,112.9 114.5,105.1 116.2,106.9 117.9,107.2 119.6,105.4 121.3,107.3 123.0,114.1 124.6,123.8 126.3,126.9 128.0,128.2 129.7,126.6 131.4,126.3 133.1,129.7 134.7,126.5 136.4,132.8 138.1,144.9 139.8,159.8 141.5,143.4 143.2,145.1 144.9,147.7 146.5,149.8 148.2,155.5 149.9,157.3 151.6,156.9 153.3,150.7 155.0,150.5 156.6,153.5 158.3,157.6 160.0,155.7 161.7,154.3 163.4,153.4 165.1,123.4 166.8,137.6 168.4,125.8 170.1,111.2 171.8,135.9 173.5,133.4 175.2,135.2 176.9,140.4 178.5,144.3 180.2,155.8 181.9,156.1 183.6,158.3 185.3,156.5 187.0,153.7 188.7,149.4 190.3,141.4 192.0,149.4 193.7,149.7 195.4,155.6 197.1,161.2 198.8,159.4 200.4,162.4 202.1,165.6 203.8,159.2 205.5,166.3 207.2,167.5 208.9,178.7 210.6,176.2 212.2,170.7 213.9,167.8 215.6,169.4 217.3,172.0 219.0,174.3 220.7,174.2 222.3,174.4 224.0,174.0 225.7,179.8 227.4,177.4 229.1,173.3 230.8,174.8 232.4,178.3 234.1,177.9 235.8,179.2 237.5,176.5 239.2,177.2 240.9,176.9 242.6,177.6 244.2,177.6 245.9,176.7 247.6,181.0 249.3,185.1 251.0,187.5 252.7,191.0 254.3,193.6 256.0,190.3 257.7,189.0 259.4,188.7 261.1,187.1 262.8,190.9 264.5,192.5 266.1,192.9 267.8,192.8 269.5,190.3 271.2,192.1 272.9,191.5 274.6,191.2 276.2,189.8 277.9,189.3 279.6,186.9 281.3,182.7 283.0,182.2 284.7,175.5 286.4,174.6 288.0,175.5 289.7,174.9 291.4,119.3 293.1,135.0 294.8,98.4 296.5,104.5 298.1,140.6 299.8,120.4 301.5,134.8 303.2,131.0 304.9,87.3 306.6,109.6 308.3,132.9 309.9,111.3 311.6,131.7 313.3,106.1 315.0,151.1 316.7,101.9 318.4,130.1 320.0,122.2 321.7,131.8 323.4,116.0 325.1,145.3 326.8,151.0 328.5,171.8 330.1,164.9 331.8,165.0 333.5,159.3 335.2,164.2 336.9,205.2 338.6,193.9 340.3,153.1 341.9,137.6 343.6,87.3 345.3,223.2 347.0,164.4 348.7,188.8 350.4,173.7 352.0,174.1 353.7,169.1 355.4,140.2 357.1,139.9 358.8,140.2 360.5,140.1 362.2,168.6 363.8,165.6 365.5,144.1 367.2,151.2 368.9,151.7 370.6,153.4 372.3,142.1 373.9,131.0 375.6,124.4 377.3,145.6 379.0,140.2 380.7,132.4 382.4,146.6 384.1,136.9 385.7,141.5 387.4,155.8 389.1,138.0 390.8,155.8 392.5,113.6 394.2,197.2 395.8,121.3 397.5,128.7 399.2,103.4 400.9,123.7 402.6,131.8 404.3,122.3 406.0,131.6 407.6,123.4 409.3,189.7 411.0,108.8 412.7,145.0 414.4,135.6 416.1,156.1 417.7,112.1 419.4,120.3 421.1,177.7 422.8,176.3 424.5,179.2 426.2,180.3 427.9,178.8 429.5,180.3 431.2,184.2 432.9,181.3 434.6,180.6 436.3,179.8 438.0,179.9 439.6,179.4 441.3,181.6 443.0,181.2 444.7,182.7 446.4,182.2 448.1,185.8 449.7,183.2 451.4,185.7 453.1,184.7 454.8,184.8 456.5,184.1 458.2,185.8 459.9,186.2 461.5,186.8 463.2,184.0 464.9,186.5 466.6,188.4 468.3,186.2 470.0,185.6 471.6,187.0 473.3,188.9 475.0,186.5 476.7,188.0 478.4,192.6 480.1,190.6 481.8,190.8 483.4,190.3 485.1,188.9 486.8,185.7 488.5,183.4 490.2,187.8 491.9,188.2 493.5,185.1 495.2,184.4 496.9,183.9 498.6,185.4 500.3,186.4 502.0,185.6 503.7,187.1 505.3,191.4 507.0,190.2 508.7,188.6 510.4,184.3 512.1,181.6 513.8,182.6 515.4,186.0 517.1,188.8 518.8,189.6 520.5,188.0 522.2,190.7 523.9,191.7 525.6,192.3 527.2,193.5 528.9,192.4 530.6,192.7 532.3,194.8 534.0,198.3 535.7,198.3 537.3,198.0 539.0,202.1 540.7,201.7 542.4,199.9 544.1,198.6 545.8,199.3 547.4,202.6 549.1,199.6 550.8,200.0 552.5,197.2 554.2,196.8 555.9,193.7 557.6,194.3 559.2,196.2 560.9,198.6 562.6,199.4 564.3,197.8 566.0,196.5 567.7,198.4 569.3,203.7 571.0,205.6 572.7,205.9 574.4,205.5 576.1,204.7 577.8,206.3 579.5,203.9 581.1,207.4 582.8,205.2 584.5,204.8 586.2,203.8 587.9,203.1 589.6,201.4 591.2,199.9 592.9,200.6 594.6,202.9 596.3,202.3 598.0,206.6 599.7,204.0 601.4,204.3 603.0,204.2 604.7,203.3 606.4,204.9 608.1,203.7 609.8,205.8 611.5,206.4 613.1,206.7 614.8,207.4 616.5,205.9 618.2,205.1 619.9,205.8 621.6,206.4 623.3,206.6 624.9,205.8 626.6,207.1 628.3,208.4 630.0,208.0 631.7,208.5 633.4,208.2 635.0,208.3 636.7,208.2 638.4,207.0 640.1,205.7 641.8,206.3 643.5,206.1 645.1,203.6 646.8,202.8 648.5,204.3 650.2,204.7 651.9,202.8 653.6,203.5 655.3,202.4 656.9,204.1 658.6,205.5 660.3,206.6 662.0,207.1 663.7,207.2 665.4,201.2 667.0,200.2 668.7,193.8 670.4,193.6 672.1,194.3 673.8,195.9 675.5,196.0 677.2,203.5 678.8,200.6 680.5,194.3 682.2,195.3 683.9,197.2 685.6,192.6 687.3,192.6 688.9,193.1 690.6,190.6 692.3,190.5 694.0,190.2" fill="none" stroke="#2a78d6" stroke-width="1.6" stroke-linejoin="round"/>
<text x="64" y="70" font-size="11" font-weight="700" fill="#1c1917">① 日收盘价</text>
<circle cx="345.3" cy="223.2" r="4" fill="#e34948" stroke="#fff" stroke-width="1.6"/>
<text x="351.3" y="237.2" font-size="10" font-weight="700" fill="#1c1917" text-anchor="start">–57.8% 单日</text>
<circle cx="395.8" cy="121.3" r="4" fill="#e34948" stroke="#fff" stroke-width="1.6"/>
<text x="399.8" y="113.3" font-size="10" font-weight="700" fill="#1c1917" text-anchor="start">次日 +60.7%</text>
<text x="64" y="290" font-size="11" font-weight="700" fill="#1c1917">② 日成交额（对数轴）</text>
<rect x="63.3" y="351.3" width="1.3" height="88.7" fill="#57534e" opacity="0.5"/>
<rect x="65.0" y="376.7" width="1.3" height="63.3" fill="#57534e" opacity="0.5"/>
<rect x="66.7" y="379.4" width="1.3" height="60.6" fill="#57534e" opacity="0.5"/>
<rect x="68.4" y="378.0" width="1.3" height="62.0" fill="#57534e" opacity="0.5"/>
<rect x="70.1" y="398.4" width="1.3" height="41.6" fill="#57534e" opacity="0.5"/>
<rect x="71.8" y="377.8" width="1.3" height="62.2" fill="#57534e" opacity="0.5"/>
<rect x="73.4" y="383.0" width="1.3" height="57.0" fill="#57534e" opacity="0.5"/>
<rect x="75.1" y="385.6" width="1.3" height="54.4" fill="#57534e" opacity="0.5"/>
<rect x="76.8" y="381.7" width="1.3" height="58.3" fill="#57534e" opacity="0.5"/>
<rect x="78.5" y="376.6" width="1.3" height="63.4" fill="#57534e" opacity="0.5"/>
<rect x="80.2" y="416.7" width="1.3" height="23.3" fill="#57534e" opacity="0.5"/>
<rect x="81.9" y="386.2" width="1.3" height="53.8" fill="#57534e" opacity="0.5"/>
<rect x="83.5" y="384.5" width="1.3" height="55.5" fill="#57534e" opacity="0.5"/>
<rect x="85.2" y="394.6" width="1.3" height="45.4" fill="#57534e" opacity="0.5"/>
<rect x="86.9" y="394.4" width="1.3" height="45.6" fill="#57534e" opacity="0.5"/>
<rect x="88.6" y="356.2" width="1.3" height="83.8" fill="#57534e" opacity="0.5"/>
<rect x="90.3" y="392.5" width="1.3" height="47.5" fill="#57534e" opacity="0.5"/>
<rect x="92.0" y="390.2" width="1.3" height="49.8" fill="#57534e" opacity="0.5"/>
<rect x="93.6" y="386.7" width="1.3" height="53.3" fill="#57534e" opacity="0.5"/>
<rect x="95.3" y="388.4" width="1.3" height="51.6" fill="#57534e" opacity="0.5"/>
<rect x="97.0" y="387.5" width="1.3" height="52.5" fill="#57534e" opacity="0.5"/>
<rect x="98.7" y="361.9" width="1.3" height="78.1" fill="#57534e" opacity="0.5"/>
<rect x="100.4" y="350.8" width="1.3" height="89.2" fill="#57534e" opacity="0.5"/>
<rect x="102.1" y="354.2" width="1.3" height="85.8" fill="#57534e" opacity="0.5"/>
<rect x="103.8" y="369.8" width="1.3" height="70.2" fill="#57534e" opacity="0.5"/>
<rect x="105.4" y="406.1" width="1.3" height="33.9" fill="#57534e" opacity="0.5"/>
<rect x="107.1" y="374.3" width="1.3" height="65.7" fill="#57534e" opacity="0.5"/>
<rect x="108.8" y="363.4" width="1.3" height="76.6" fill="#57534e" opacity="0.5"/>
<rect x="110.5" y="354.5" width="1.3" height="85.5" fill="#57534e" opacity="0.5"/>
<rect x="112.2" y="347.3" width="1.3" height="92.7" fill="#57534e" opacity="0.5"/>
<rect x="113.9" y="371.0" width="1.3" height="69.0" fill="#57534e" opacity="0.5"/>
<rect x="115.5" y="357.3" width="1.3" height="82.7" fill="#57534e" opacity="0.5"/>
<rect x="117.2" y="349.9" width="1.3" height="90.1" fill="#57534e" opacity="0.5"/>
<rect x="118.9" y="357.3" width="1.3" height="82.7" fill="#57534e" opacity="0.5"/>
<rect x="120.6" y="354.7" width="1.3" height="85.3" fill="#57534e" opacity="0.5"/>
<rect x="122.3" y="349.2" width="1.3" height="90.8" fill="#57534e" opacity="0.5"/>
<rect x="124.0" y="334.4" width="1.3" height="105.6" fill="#57534e" opacity="0.5"/>
<rect x="125.7" y="335.7" width="1.3" height="104.3" fill="#57534e" opacity="0.5"/>
<rect x="127.3" y="339.7" width="1.3" height="100.3" fill="#57534e" opacity="0.5"/>
<rect x="129.0" y="354.1" width="1.3" height="85.9" fill="#57534e" opacity="0.5"/>
<rect x="130.7" y="350.7" width="1.3" height="89.3" fill="#57534e" opacity="0.5"/>
<rect x="132.4" y="351.0" width="1.3" height="89.0" fill="#57534e" opacity="0.5"/>
<rect x="134.1" y="358.1" width="1.3" height="81.9" fill="#57534e" opacity="0.5"/>
<rect x="135.8" y="366.2" width="1.3" height="73.8" fill="#57534e" opacity="0.5"/>
<rect x="137.4" y="354.7" width="1.3" height="85.3" fill="#57534e" opacity="0.5"/>
<rect x="139.1" y="339.3" width="1.3" height="100.7" fill="#57534e" opacity="0.5"/>
<rect x="140.8" y="332.8" width="1.3" height="107.2" fill="#57534e" opacity="0.5"/>
<rect x="142.5" y="356.5" width="1.3" height="83.5" fill="#57534e" opacity="0.5"/>
<rect x="144.2" y="372.7" width="1.3" height="67.3" fill="#57534e" opacity="0.5"/>
<rect x="145.9" y="349.9" width="1.3" height="90.1" fill="#57534e" opacity="0.5"/>
<rect x="147.6" y="357.9" width="1.3" height="82.1" fill="#57534e" opacity="0.5"/>
<rect x="149.2" y="350.7" width="1.3" height="89.3" fill="#57534e" opacity="0.5"/>
<rect x="150.9" y="389.6" width="1.3" height="50.4" fill="#57534e" opacity="0.5"/>
<rect x="152.6" y="401.3" width="1.3" height="38.7" fill="#57534e" opacity="0.5"/>
<rect x="154.3" y="345.3" width="1.3" height="94.7" fill="#57534e" opacity="0.5"/>
<rect x="156.0" y="385.4" width="1.3" height="54.6" fill="#57534e" opacity="0.5"/>
<rect x="157.7" y="388.4" width="1.3" height="51.6" fill="#57534e" opacity="0.5"/>
<rect x="159.3" y="368.6" width="1.3" height="71.4" fill="#57534e" opacity="0.5"/>
<rect x="161.0" y="375.8" width="1.3" height="64.2" fill="#57534e" opacity="0.5"/>
<rect x="162.7" y="356.0" width="1.3" height="84.0" fill="#57534e" opacity="0.5"/>
<rect x="164.4" y="310.9" width="1.3" height="129.1" fill="#57534e" opacity="0.5"/>
<rect x="166.1" y="301.5" width="1.3" height="138.5" fill="#57534e" opacity="0.5"/>
<rect x="167.8" y="303.8" width="1.3" height="136.2" fill="#57534e" opacity="0.5"/>
<rect x="169.5" y="332.4" width="1.3" height="107.6" fill="#57534e" opacity="0.5"/>
<rect x="171.1" y="328.4" width="1.3" height="111.6" fill="#57534e" opacity="0.5"/>
<rect x="172.8" y="372.6" width="1.3" height="67.4" fill="#57534e" opacity="0.5"/>
<rect x="174.5" y="379.6" width="1.3" height="60.4" fill="#57534e" opacity="0.5"/>
<rect x="176.2" y="346.2" width="1.3" height="93.8" fill="#57534e" opacity="0.5"/>
<rect x="177.9" y="356.8" width="1.3" height="83.2" fill="#57534e" opacity="0.5"/>
<rect x="179.6" y="348.3" width="1.3" height="91.7" fill="#57534e" opacity="0.5"/>
<rect x="181.2" y="346.4" width="1.3" height="93.6" fill="#57534e" opacity="0.5"/>
<rect x="182.9" y="358.9" width="1.3" height="81.1" fill="#57534e" opacity="0.5"/>
<rect x="184.6" y="340.6" width="1.3" height="99.4" fill="#57534e" opacity="0.5"/>
<rect x="186.3" y="362.5" width="1.3" height="77.5" fill="#57534e" opacity="0.5"/>
<rect x="188.0" y="357.1" width="1.3" height="82.9" fill="#57534e" opacity="0.5"/>
<rect x="189.7" y="374.0" width="1.3" height="66.0" fill="#57534e" opacity="0.5"/>
<rect x="191.3" y="352.9" width="1.3" height="87.1" fill="#57534e" opacity="0.5"/>
<rect x="193.0" y="372.5" width="1.3" height="67.5" fill="#57534e" opacity="0.5"/>
<rect x="194.7" y="358.6" width="1.3" height="81.4" fill="#57534e" opacity="0.5"/>
<rect x="196.4" y="364.5" width="1.3" height="75.5" fill="#57534e" opacity="0.5"/>
<rect x="198.1" y="387.4" width="1.3" height="52.6" fill="#57534e" opacity="0.5"/>
<rect x="199.8" y="350.0" width="1.3" height="90.0" fill="#57534e" opacity="0.5"/>
<rect x="201.5" y="376.1" width="1.3" height="63.9" fill="#57534e" opacity="0.5"/>
<rect x="203.1" y="351.4" width="1.3" height="88.6" fill="#57534e" opacity="0.5"/>
<rect x="204.8" y="368.8" width="1.3" height="71.2" fill="#57534e" opacity="0.5"/>
<rect x="206.5" y="370.3" width="1.3" height="69.7" fill="#57534e" opacity="0.5"/>
<rect x="208.2" y="359.2" width="1.3" height="80.8" fill="#57534e" opacity="0.5"/>
<rect x="209.9" y="390.9" width="1.3" height="49.1" fill="#57534e" opacity="0.5"/>
<rect x="211.6" y="376.7" width="1.3" height="63.3" fill="#57534e" opacity="0.5"/>
<rect x="213.2" y="364.8" width="1.3" height="75.2" fill="#57534e" opacity="0.5"/>
<rect x="214.9" y="353.5" width="1.3" height="86.5" fill="#57534e" opacity="0.5"/>
<rect x="216.6" y="380.5" width="1.3" height="59.5" fill="#57534e" opacity="0.5"/>
<rect x="218.3" y="390.1" width="1.3" height="49.9" fill="#57534e" opacity="0.5"/>
<rect x="220.0" y="387.8" width="1.3" height="52.2" fill="#57534e" opacity="0.5"/>
<rect x="221.7" y="371.0" width="1.3" height="69.0" fill="#57534e" opacity="0.5"/>
<rect x="223.4" y="397.8" width="1.3" height="42.2" fill="#57534e" opacity="0.5"/>
<rect x="225.0" y="381.3" width="1.3" height="58.7" fill="#57534e" opacity="0.5"/>
<rect x="226.7" y="375.5" width="1.3" height="64.5" fill="#57534e" opacity="0.5"/>
<rect x="228.4" y="374.5" width="1.3" height="65.5" fill="#57534e" opacity="0.5"/>
<rect x="230.1" y="373.2" width="1.3" height="66.8" fill="#57534e" opacity="0.5"/>
<rect x="231.8" y="361.0" width="1.3" height="79.0" fill="#57534e" opacity="0.5"/>
<rect x="233.5" y="373.6" width="1.3" height="66.4" fill="#57534e" opacity="0.5"/>
<rect x="235.1" y="379.1" width="1.3" height="60.9" fill="#57534e" opacity="0.5"/>
<rect x="236.8" y="349.1" width="1.3" height="90.9" fill="#57534e" opacity="0.5"/>
<rect x="238.5" y="349.4" width="1.3" height="90.6" fill="#57534e" opacity="0.5"/>
<rect x="240.2" y="358.6" width="1.3" height="81.4" fill="#57534e" opacity="0.5"/>
<rect x="241.9" y="357.4" width="1.3" height="82.6" fill="#57534e" opacity="0.5"/>
<rect x="243.6" y="354.5" width="1.3" height="85.5" fill="#57534e" opacity="0.5"/>
<rect x="245.3" y="361.7" width="1.3" height="78.3" fill="#57534e" opacity="0.5"/>
<rect x="246.9" y="359.0" width="1.3" height="81.0" fill="#57534e" opacity="0.5"/>
<rect x="248.6" y="372.2" width="1.3" height="67.8" fill="#57534e" opacity="0.5"/>
<rect x="250.3" y="350.8" width="1.3" height="89.2" fill="#57534e" opacity="0.5"/>
<rect x="252.0" y="358.4" width="1.3" height="81.6" fill="#57534e" opacity="0.5"/>
<rect x="253.7" y="356.5" width="1.3" height="83.5" fill="#57534e" opacity="0.5"/>
<rect x="255.4" y="369.7" width="1.3" height="70.3" fill="#57534e" opacity="0.5"/>
<rect x="257.0" y="359.3" width="1.3" height="80.7" fill="#57534e" opacity="0.5"/>
<rect x="258.7" y="404.2" width="1.3" height="35.8" fill="#57534e" opacity="0.5"/>
<rect x="260.4" y="360.2" width="1.3" height="79.8" fill="#57534e" opacity="0.5"/>
<rect x="262.1" y="356.4" width="1.3" height="83.6" fill="#57534e" opacity="0.5"/>
<rect x="263.8" y="365.2" width="1.3" height="74.8" fill="#57534e" opacity="0.5"/>
<rect x="265.5" y="353.5" width="1.3" height="86.5" fill="#57534e" opacity="0.5"/>
<rect x="267.2" y="360.8" width="1.3" height="79.2" fill="#57534e" opacity="0.5"/>
<rect x="268.8" y="367.4" width="1.3" height="72.6" fill="#57534e" opacity="0.5"/>
<rect x="270.5" y="366.0" width="1.3" height="74.0" fill="#57534e" opacity="0.5"/>
<rect x="272.2" y="369.9" width="1.3" height="70.1" fill="#57534e" opacity="0.5"/>
<rect x="273.9" y="410.9" width="1.3" height="29.1" fill="#57534e" opacity="0.5"/>
<rect x="275.6" y="405.6" width="1.3" height="34.4" fill="#57534e" opacity="0.5"/>
<rect x="277.3" y="440.0" width="1.3" height="0.0" fill="#57534e" opacity="0.5"/>
<rect x="278.9" y="407.9" width="1.3" height="32.1" fill="#57534e" opacity="0.5"/>
<rect x="280.6" y="399.0" width="1.3" height="41.0" fill="#57534e" opacity="0.5"/>
<rect x="282.3" y="414.8" width="1.3" height="25.2" fill="#57534e" opacity="0.5"/>
<rect x="284.0" y="388.9" width="1.3" height="51.1" fill="#57534e" opacity="0.5"/>
<rect x="285.7" y="402.6" width="1.3" height="37.4" fill="#57534e" opacity="0.5"/>
<rect x="287.4" y="404.4" width="1.3" height="35.6" fill="#57534e" opacity="0.5"/>
<rect x="289.0" y="409.1" width="1.3" height="30.9" fill="#57534e" opacity="0.5"/>
<rect x="290.7" y="384.5" width="1.3" height="55.5" fill="#57534e" opacity="0.5"/>
<rect x="292.4" y="377.8" width="1.3" height="62.2" fill="#57534e" opacity="0.5"/>
<rect x="294.1" y="392.0" width="1.3" height="48.0" fill="#57534e" opacity="0.5"/>
<rect x="295.8" y="390.1" width="1.3" height="49.9" fill="#57534e" opacity="0.5"/>
<rect x="297.5" y="373.2" width="1.3" height="66.8" fill="#57534e" opacity="0.5"/>
<rect x="299.2" y="383.9" width="1.3" height="56.1" fill="#57534e" opacity="0.5"/>
<rect x="300.8" y="377.0" width="1.3" height="63.0" fill="#57534e" opacity="0.5"/>
<rect x="302.5" y="379.0" width="1.3" height="61.0" fill="#57534e" opacity="0.5"/>
<rect x="304.2" y="395.0" width="1.3" height="45.0" fill="#57534e" opacity="0.5"/>
<rect x="305.9" y="388.2" width="1.3" height="51.8" fill="#57534e" opacity="0.5"/>
<rect x="307.6" y="379.7" width="1.3" height="60.3" fill="#57534e" opacity="0.5"/>
<rect x="309.3" y="388.6" width="1.3" height="51.4" fill="#57534e" opacity="0.5"/>
<rect x="310.9" y="381.0" width="1.3" height="59.0" fill="#57534e" opacity="0.5"/>
<rect x="312.6" y="390.1" width="1.3" height="49.9" fill="#57534e" opacity="0.5"/>
<rect x="314.3" y="373.4" width="1.3" height="66.6" fill="#57534e" opacity="0.5"/>
<rect x="316.0" y="391.6" width="1.3" height="48.4" fill="#57534e" opacity="0.5"/>
<rect x="317.7" y="383.5" width="1.3" height="56.5" fill="#57534e" opacity="0.5"/>
<rect x="319.4" y="385.7" width="1.3" height="54.3" fill="#57534e" opacity="0.5"/>
<rect x="321.1" y="382.3" width="1.3" height="57.7" fill="#57534e" opacity="0.5"/>
<rect x="322.7" y="387.7" width="1.3" height="52.3" fill="#57534e" opacity="0.5"/>
<rect x="324.4" y="378.2" width="1.3" height="61.8" fill="#57534e" opacity="0.5"/>
<rect x="326.1" y="376.0" width="1.3" height="64.0" fill="#57534e" opacity="0.5"/>
<rect x="327.8" y="367.0" width="1.3" height="73.0" fill="#57534e" opacity="0.5"/>
<rect x="329.5" y="371.2" width="1.3" height="68.8" fill="#57534e" opacity="0.5"/>
<rect x="331.2" y="370.9" width="1.3" height="69.1" fill="#57534e" opacity="0.5"/>
<rect x="332.8" y="374.4" width="1.3" height="65.6" fill="#57534e" opacity="0.5"/>
<rect x="334.5" y="373.5" width="1.3" height="66.5" fill="#57534e" opacity="0.5"/>
<rect x="336.2" y="354.5" width="1.3" height="85.5" fill="#57534e" opacity="0.5"/>
<rect x="337.9" y="357.0" width="1.3" height="83.0" fill="#57534e" opacity="0.5"/>
<rect x="339.6" y="379.0" width="1.3" height="61.0" fill="#57534e" opacity="0.5"/>
<rect x="341.3" y="383.9" width="1.3" height="56.1" fill="#57534e" opacity="0.5"/>
<rect x="343.0" y="395.0" width="1.3" height="45.0" fill="#57534e" opacity="0.5"/>
<rect x="344.6" y="378.7" width="1.3" height="61.3" fill="#57534e" opacity="0.5"/>
<rect x="346.3" y="376.4" width="1.3" height="63.6" fill="#57534e" opacity="0.5"/>
<rect x="348.0" y="364.6" width="1.3" height="75.4" fill="#57534e" opacity="0.5"/>
<rect x="349.7" y="371.4" width="1.3" height="68.6" fill="#57534e" opacity="0.5"/>
<rect x="351.4" y="369.6" width="1.3" height="70.4" fill="#57534e" opacity="0.5"/>
<rect x="353.1" y="372.5" width="1.3" height="67.5" fill="#57534e" opacity="0.5"/>
<rect x="354.7" y="383.1" width="1.3" height="56.9" fill="#57534e" opacity="0.5"/>
<rect x="356.4" y="383.1" width="1.3" height="56.9" fill="#57534e" opacity="0.5"/>
<rect x="358.1" y="383.2" width="1.3" height="56.8" fill="#57534e" opacity="0.5"/>
<rect x="359.8" y="382.8" width="1.3" height="57.2" fill="#57534e" opacity="0.5"/>
<rect x="361.5" y="369.4" width="1.3" height="70.6" fill="#57534e" opacity="0.5"/>
<rect x="363.2" y="366.9" width="1.3" height="73.1" fill="#57534e" opacity="0.5"/>
<rect x="364.9" y="379.5" width="1.3" height="60.5" fill="#57534e" opacity="0.5"/>
<rect x="366.5" y="376.2" width="1.3" height="63.8" fill="#57534e" opacity="0.5"/>
<rect x="368.2" y="376.5" width="1.3" height="63.5" fill="#57534e" opacity="0.5"/>
<rect x="369.9" y="373.8" width="1.3" height="66.2" fill="#57534e" opacity="0.5"/>
<rect x="371.6" y="379.5" width="1.3" height="60.5" fill="#57534e" opacity="0.5"/>
<rect x="373.3" y="383.9" width="1.3" height="56.1" fill="#57534e" opacity="0.5"/>
<rect x="375.0" y="386.0" width="1.3" height="54.0" fill="#57534e" opacity="0.5"/>
<rect x="376.6" y="378.7" width="1.3" height="61.3" fill="#57534e" opacity="0.5"/>
<rect x="378.3" y="380.3" width="1.3" height="59.7" fill="#57534e" opacity="0.5"/>
<rect x="380.0" y="383.4" width="1.3" height="56.6" fill="#57534e" opacity="0.5"/>
<rect x="381.7" y="377.5" width="1.3" height="62.5" fill="#57534e" opacity="0.5"/>
<rect x="383.4" y="381.7" width="1.3" height="58.3" fill="#57534e" opacity="0.5"/>
<rect x="385.1" y="380.7" width="1.3" height="59.3" fill="#57534e" opacity="0.5"/>
<rect x="386.8" y="376.1" width="1.3" height="63.9" fill="#57534e" opacity="0.5"/>
<rect x="388.4" y="382.6" width="1.3" height="57.4" fill="#57534e" opacity="0.5"/>
<rect x="390.1" y="372.6" width="1.3" height="67.4" fill="#57534e" opacity="0.5"/>
<rect x="391.8" y="388.7" width="1.3" height="51.3" fill="#57534e" opacity="0.5"/>
<rect x="393.5" y="393.6" width="1.3" height="46.4" fill="#57534e" opacity="0.5"/>
<rect x="395.2" y="386.5" width="1.3" height="53.5" fill="#57534e" opacity="0.5"/>
<rect x="396.9" y="384.0" width="1.3" height="56.0" fill="#57534e" opacity="0.5"/>
<rect x="398.5" y="391.3" width="1.3" height="48.7" fill="#57534e" opacity="0.5"/>
<rect x="400.2" y="385.3" width="1.3" height="54.7" fill="#57534e" opacity="0.5"/>
<rect x="401.9" y="382.3" width="1.3" height="57.7" fill="#57534e" opacity="0.5"/>
<rect x="403.6" y="385.8" width="1.3" height="54.2" fill="#57534e" opacity="0.5"/>
<rect x="405.3" y="383.2" width="1.3" height="56.8" fill="#57534e" opacity="0.5"/>
<rect x="407.0" y="386.1" width="1.3" height="53.9" fill="#57534e" opacity="0.5"/>
<rect x="408.6" y="390.1" width="1.3" height="49.9" fill="#57534e" opacity="0.5"/>
<rect x="410.3" y="389.7" width="1.3" height="50.3" fill="#57534e" opacity="0.5"/>
<rect x="412.0" y="376.6" width="1.3" height="63.4" fill="#57534e" opacity="0.5"/>
<rect x="413.7" y="380.0" width="1.3" height="60.0" fill="#57534e" opacity="0.5"/>
<rect x="415.4" y="360.7" width="1.3" height="79.3" fill="#57534e" opacity="0.5"/>
<rect x="417.1" y="387.4" width="1.3" height="52.6" fill="#57534e" opacity="0.5"/>
<rect x="418.8" y="384.4" width="1.3" height="55.6" fill="#57534e" opacity="0.5"/>
<rect x="420.4" y="357.0" width="1.3" height="83.0" fill="#57534e" opacity="0.5"/>
<rect x="422.1" y="358.5" width="1.3" height="81.5" fill="#57534e" opacity="0.5"/>
<rect x="423.8" y="361.9" width="1.3" height="78.1" fill="#57534e" opacity="0.5"/>
<rect x="425.5" y="359.1" width="1.3" height="80.9" fill="#57534e" opacity="0.5"/>
<rect x="427.2" y="373.7" width="1.3" height="66.3" fill="#57534e" opacity="0.5"/>
<rect x="428.9" y="349.7" width="1.3" height="90.3" fill="#57534e" opacity="0.5"/>
<rect x="430.5" y="391.4" width="1.3" height="48.6" fill="#57534e" opacity="0.5"/>
<rect x="432.2" y="361.2" width="1.3" height="78.8" fill="#57534e" opacity="0.5"/>
<rect x="433.9" y="366.0" width="1.3" height="74.0" fill="#57534e" opacity="0.5"/>
<rect x="435.6" y="359.7" width="1.3" height="80.3" fill="#57534e" opacity="0.5"/>
<rect x="437.3" y="365.2" width="1.3" height="74.8" fill="#57534e" opacity="0.5"/>
<rect x="439.0" y="364.1" width="1.3" height="75.9" fill="#57534e" opacity="0.5"/>
<rect x="440.7" y="333.8" width="1.3" height="106.2" fill="#57534e" opacity="0.5"/>
<rect x="442.3" y="363.0" width="1.3" height="77.0" fill="#57534e" opacity="0.5"/>
<rect x="444.0" y="355.1" width="1.3" height="84.9" fill="#57534e" opacity="0.5"/>
<rect x="445.7" y="374.2" width="1.3" height="65.8" fill="#57534e" opacity="0.5"/>
<rect x="447.4" y="354.6" width="1.3" height="85.4" fill="#57534e" opacity="0.5"/>
<rect x="449.1" y="354.4" width="1.3" height="85.6" fill="#57534e" opacity="0.5"/>
<rect x="450.8" y="356.5" width="1.3" height="83.5" fill="#57534e" opacity="0.5"/>
<rect x="452.4" y="364.5" width="1.3" height="75.5" fill="#57534e" opacity="0.5"/>
<rect x="454.1" y="348.0" width="1.3" height="92.0" fill="#57534e" opacity="0.5"/>
<rect x="455.8" y="361.8" width="1.3" height="78.2" fill="#57534e" opacity="0.5"/>
<rect x="457.5" y="374.8" width="1.3" height="65.2" fill="#57534e" opacity="0.5"/>
<rect x="459.2" y="361.7" width="1.3" height="78.3" fill="#57534e" opacity="0.5"/>
<rect x="460.9" y="388.4" width="1.3" height="51.6" fill="#57534e" opacity="0.5"/>
<rect x="462.6" y="368.4" width="1.3" height="71.6" fill="#57534e" opacity="0.5"/>
<rect x="464.2" y="375.4" width="1.3" height="64.6" fill="#57534e" opacity="0.5"/>
<rect x="465.9" y="371.1" width="1.3" height="68.9" fill="#57534e" opacity="0.5"/>
<rect x="467.6" y="373.2" width="1.3" height="66.8" fill="#57534e" opacity="0.5"/>
<rect x="469.3" y="397.4" width="1.3" height="42.6" fill="#57534e" opacity="0.5"/>
<rect x="471.0" y="388.9" width="1.3" height="51.1" fill="#57534e" opacity="0.5"/>
<rect x="472.7" y="363.2" width="1.3" height="76.8" fill="#57534e" opacity="0.5"/>
<rect x="474.3" y="388.9" width="1.3" height="51.1" fill="#57534e" opacity="0.5"/>
<rect x="476.0" y="367.9" width="1.3" height="72.1" fill="#57534e" opacity="0.5"/>
<rect x="477.7" y="369.0" width="1.3" height="71.0" fill="#57534e" opacity="0.5"/>
<rect x="479.4" y="384.0" width="1.3" height="56.0" fill="#57534e" opacity="0.5"/>
<rect x="481.1" y="378.2" width="1.3" height="61.8" fill="#57534e" opacity="0.5"/>
<rect x="482.8" y="393.7" width="1.3" height="46.3" fill="#57534e" opacity="0.5"/>
<rect x="484.5" y="377.1" width="1.3" height="62.9" fill="#57534e" opacity="0.5"/>
<rect x="486.1" y="379.9" width="1.3" height="60.1" fill="#57534e" opacity="0.5"/>
<rect x="487.8" y="379.5" width="1.3" height="60.5" fill="#57534e" opacity="0.5"/>
<rect x="489.5" y="374.1" width="1.3" height="65.9" fill="#57534e" opacity="0.5"/>
<rect x="491.2" y="380.9" width="1.3" height="59.1" fill="#57534e" opacity="0.5"/>
<rect x="492.9" y="375.3" width="1.3" height="64.7" fill="#57534e" opacity="0.5"/>
<rect x="494.6" y="380.1" width="1.3" height="59.9" fill="#57534e" opacity="0.5"/>
<rect x="496.2" y="363.1" width="1.3" height="76.9" fill="#57534e" opacity="0.5"/>
<rect x="497.9" y="381.4" width="1.3" height="58.6" fill="#57534e" opacity="0.5"/>
<rect x="499.6" y="377.0" width="1.3" height="63.0" fill="#57534e" opacity="0.5"/>
<rect x="501.3" y="381.5" width="1.3" height="58.5" fill="#57534e" opacity="0.5"/>
<rect x="503.0" y="411.2" width="1.3" height="28.8" fill="#57534e" opacity="0.5"/>
<rect x="504.7" y="384.1" width="1.3" height="55.9" fill="#57534e" opacity="0.5"/>
<rect x="506.3" y="381.1" width="1.3" height="58.9" fill="#57534e" opacity="0.5"/>
<rect x="508.0" y="365.8" width="1.3" height="74.2" fill="#57534e" opacity="0.5"/>
<rect x="509.7" y="385.0" width="1.3" height="55.0" fill="#57534e" opacity="0.5"/>
<rect x="511.4" y="381.7" width="1.3" height="58.3" fill="#57534e" opacity="0.5"/>
<rect x="513.1" y="371.6" width="1.3" height="68.4" fill="#57534e" opacity="0.5"/>
<rect x="514.8" y="379.5" width="1.3" height="60.5" fill="#57534e" opacity="0.5"/>
<rect x="516.5" y="372.6" width="1.3" height="67.4" fill="#57534e" opacity="0.5"/>
<rect x="518.1" y="376.8" width="1.3" height="63.2" fill="#57534e" opacity="0.5"/>
<rect x="519.8" y="379.1" width="1.3" height="60.9" fill="#57534e" opacity="0.5"/>
<rect x="521.5" y="373.9" width="1.3" height="66.1" fill="#57534e" opacity="0.5"/>
<rect x="523.2" y="380.0" width="1.3" height="60.0" fill="#57534e" opacity="0.5"/>
<rect x="524.9" y="381.8" width="1.3" height="58.2" fill="#57534e" opacity="0.5"/>
<rect x="526.6" y="386.0" width="1.3" height="54.0" fill="#57534e" opacity="0.5"/>
<rect x="528.2" y="381.4" width="1.3" height="58.6" fill="#57534e" opacity="0.5"/>
<rect x="529.9" y="405.9" width="1.3" height="34.1" fill="#57534e" opacity="0.5"/>
<rect x="531.6" y="378.8" width="1.3" height="61.2" fill="#57534e" opacity="0.5"/>
<rect x="533.3" y="372.4" width="1.3" height="67.6" fill="#57534e" opacity="0.5"/>
<rect x="535.0" y="371.5" width="1.3" height="68.5" fill="#57534e" opacity="0.5"/>
<rect x="536.7" y="370.8" width="1.3" height="69.2" fill="#57534e" opacity="0.5"/>
<rect x="538.4" y="366.0" width="1.3" height="74.0" fill="#57534e" opacity="0.5"/>
<rect x="540.0" y="378.6" width="1.3" height="61.4" fill="#57534e" opacity="0.5"/>
<rect x="541.7" y="411.1" width="1.3" height="28.9" fill="#57534e" opacity="0.5"/>
<rect x="543.4" y="370.7" width="1.3" height="69.3" fill="#57534e" opacity="0.5"/>
<rect x="545.1" y="375.8" width="1.3" height="64.2" fill="#57534e" opacity="0.5"/>
<rect x="546.8" y="370.8" width="1.3" height="69.2" fill="#57534e" opacity="0.5"/>
<rect x="548.5" y="381.0" width="1.3" height="59.0" fill="#57534e" opacity="0.5"/>
<rect x="550.1" y="382.2" width="1.3" height="57.8" fill="#57534e" opacity="0.5"/>
<rect x="551.8" y="378.5" width="1.3" height="61.5" fill="#57534e" opacity="0.5"/>
<rect x="553.5" y="382.4" width="1.3" height="57.6" fill="#57534e" opacity="0.5"/>
<rect x="555.2" y="384.0" width="1.3" height="56.0" fill="#57534e" opacity="0.5"/>
<rect x="556.9" y="367.8" width="1.3" height="72.2" fill="#57534e" opacity="0.5"/>
<rect x="558.6" y="382.5" width="1.3" height="57.5" fill="#57534e" opacity="0.5"/>
<rect x="560.3" y="383.6" width="1.3" height="56.4" fill="#57534e" opacity="0.5"/>
<rect x="561.9" y="418.3" width="1.3" height="21.7" fill="#57534e" opacity="0.5"/>
<rect x="563.6" y="380.4" width="1.3" height="59.6" fill="#57534e" opacity="0.5"/>
<rect x="565.3" y="367.8" width="1.3" height="72.2" fill="#57534e" opacity="0.5"/>
<rect x="567.0" y="368.8" width="1.3" height="71.2" fill="#57534e" opacity="0.5"/>
<rect x="568.7" y="368.8" width="1.3" height="71.2" fill="#57534e" opacity="0.5"/>
<rect x="570.4" y="395.0" width="1.3" height="45.0" fill="#57534e" opacity="0.5"/>
<rect x="572.0" y="375.5" width="1.3" height="64.5" fill="#57534e" opacity="0.5"/>
<rect x="573.7" y="364.0" width="1.3" height="76.0" fill="#57534e" opacity="0.5"/>
<rect x="575.4" y="385.5" width="1.3" height="54.5" fill="#57534e" opacity="0.5"/>
<rect x="577.1" y="385.2" width="1.3" height="54.8" fill="#57534e" opacity="0.5"/>
<rect x="578.8" y="377.4" width="1.3" height="62.6" fill="#57534e" opacity="0.5"/>
<rect x="580.5" y="377.3" width="1.3" height="62.7" fill="#57534e" opacity="0.5"/>
<rect x="582.2" y="375.3" width="1.3" height="64.7" fill="#57534e" opacity="0.5"/>
<rect x="583.8" y="376.5" width="1.3" height="63.5" fill="#57534e" opacity="0.5"/>
<rect x="585.5" y="378.6" width="1.3" height="61.4" fill="#57534e" opacity="0.5"/>
<rect x="587.2" y="388.5" width="1.3" height="51.5" fill="#57534e" opacity="0.5"/>
<rect x="588.9" y="380.1" width="1.3" height="59.9" fill="#57534e" opacity="0.5"/>
<rect x="590.6" y="381.8" width="1.3" height="58.2" fill="#57534e" opacity="0.5"/>
<rect x="592.3" y="378.2" width="1.3" height="61.8" fill="#57534e" opacity="0.5"/>
<rect x="593.9" y="356.8" width="1.3" height="83.2" fill="#57534e" opacity="0.5"/>
<rect x="595.6" y="397.4" width="1.3" height="42.6" fill="#57534e" opacity="0.5"/>
<rect x="597.3" y="384.9" width="1.3" height="55.1" fill="#57534e" opacity="0.5"/>
<rect x="599.0" y="402.8" width="1.3" height="37.2" fill="#57534e" opacity="0.5"/>
<rect x="600.7" y="428.5" width="1.3" height="11.5" fill="#57534e" opacity="0.5"/>
<rect x="602.4" y="407.2" width="1.3" height="32.8" fill="#57534e" opacity="0.5"/>
<rect x="604.0" y="410.8" width="1.3" height="29.2" fill="#57534e" opacity="0.5"/>
<rect x="605.7" y="398.2" width="1.3" height="41.8" fill="#57534e" opacity="0.5"/>
<rect x="607.4" y="413.0" width="1.3" height="27.0" fill="#57534e" opacity="0.5"/>
<rect x="609.1" y="392.8" width="1.3" height="47.2" fill="#57534e" opacity="0.5"/>
<rect x="610.8" y="427.0" width="1.3" height="13.0" fill="#57534e" opacity="0.5"/>
<rect x="612.5" y="407.0" width="1.3" height="33.0" fill="#57534e" opacity="0.5"/>
<rect x="614.2" y="403.8" width="1.3" height="36.2" fill="#57534e" opacity="0.5"/>
<rect x="615.8" y="403.3" width="1.3" height="36.7" fill="#57534e" opacity="0.5"/>
<rect x="617.5" y="427.5" width="1.3" height="12.5" fill="#57534e" opacity="0.5"/>
<rect x="619.2" y="410.4" width="1.3" height="29.6" fill="#57534e" opacity="0.5"/>
<rect x="620.9" y="409.0" width="1.3" height="31.0" fill="#57534e" opacity="0.5"/>
<rect x="622.6" y="409.6" width="1.3" height="30.4" fill="#57534e" opacity="0.5"/>
<rect x="624.3" y="425.4" width="1.3" height="14.6" fill="#57534e" opacity="0.5"/>
<rect x="625.9" y="388.8" width="1.3" height="51.2" fill="#57534e" opacity="0.5"/>
<rect x="627.6" y="407.2" width="1.3" height="32.8" fill="#57534e" opacity="0.5"/>
<rect x="629.3" y="403.5" width="1.3" height="36.5" fill="#57534e" opacity="0.5"/>
<rect x="631.0" y="392.2" width="1.3" height="47.8" fill="#57534e" opacity="0.5"/>
<rect x="632.7" y="418.2" width="1.3" height="21.8" fill="#57534e" opacity="0.5"/>
<rect x="634.4" y="400.5" width="1.3" height="39.5" fill="#57534e" opacity="0.5"/>
<rect x="636.1" y="398.8" width="1.3" height="41.2" fill="#57534e" opacity="0.5"/>
<rect x="637.7" y="407.0" width="1.3" height="33.0" fill="#57534e" opacity="0.5"/>
<rect x="639.4" y="407.0" width="1.3" height="33.0" fill="#57534e" opacity="0.5"/>
<rect x="641.1" y="411.8" width="1.3" height="28.2" fill="#57534e" opacity="0.5"/>
<rect x="642.8" y="415.1" width="1.3" height="24.9" fill="#57534e" opacity="0.5"/>
<rect x="644.5" y="394.2" width="1.3" height="45.8" fill="#57534e" opacity="0.5"/>
<rect x="646.2" y="413.9" width="1.3" height="26.1" fill="#57534e" opacity="0.5"/>
<rect x="647.8" y="400.5" width="1.3" height="39.5" fill="#57534e" opacity="0.5"/>
<rect x="649.5" y="430.1" width="1.3" height="9.9" fill="#57534e" opacity="0.5"/>
<rect x="651.2" y="399.6" width="1.3" height="40.4" fill="#57534e" opacity="0.5"/>
<rect x="652.9" y="424.6" width="1.3" height="15.4" fill="#57534e" opacity="0.5"/>
<rect x="654.6" y="437.7" width="1.3" height="2.3" fill="#57534e" opacity="0.5"/>
<rect x="656.3" y="417.7" width="1.3" height="22.3" fill="#57534e" opacity="0.5"/>
<rect x="658.0" y="413.7" width="1.3" height="26.3" fill="#57534e" opacity="0.5"/>
<rect x="659.6" y="432.4" width="1.3" height="7.6" fill="#57534e" opacity="0.5"/>
<rect x="661.3" y="392.3" width="1.3" height="47.7" fill="#57534e" opacity="0.5"/>
<rect x="663.0" y="427.1" width="1.3" height="12.9" fill="#57534e" opacity="0.5"/>
<rect x="664.7" y="382.9" width="1.3" height="57.1" fill="#57534e" opacity="0.5"/>
<rect x="666.4" y="390.9" width="1.3" height="49.1" fill="#57534e" opacity="0.5"/>
<rect x="668.1" y="375.1" width="1.3" height="64.9" fill="#57534e" opacity="0.5"/>
<rect x="669.7" y="384.0" width="1.3" height="56.0" fill="#57534e" opacity="0.5"/>
<rect x="671.4" y="387.9" width="1.3" height="52.1" fill="#57534e" opacity="0.5"/>
<rect x="673.1" y="389.5" width="1.3" height="50.5" fill="#57534e" opacity="0.5"/>
<rect x="674.8" y="402.8" width="1.3" height="37.2" fill="#57534e" opacity="0.5"/>
<rect x="676.5" y="364.3" width="1.3" height="75.7" fill="#57534e" opacity="0.5"/>
<rect x="678.2" y="401.2" width="1.3" height="38.8" fill="#57534e" opacity="0.5"/>
<rect x="679.9" y="371.4" width="1.3" height="68.6" fill="#57534e" opacity="0.5"/>
<rect x="681.5" y="421.0" width="1.3" height="19.0" fill="#57534e" opacity="0.5"/>
<rect x="683.2" y="384.0" width="1.3" height="56.0" fill="#57534e" opacity="0.5"/>
<rect x="684.9" y="378.5" width="1.3" height="61.5" fill="#57534e" opacity="0.5"/>
<rect x="686.6" y="383.5" width="1.3" height="56.5" fill="#57534e" opacity="0.5"/>
<rect x="688.3" y="412.4" width="1.3" height="27.6" fill="#57534e" opacity="0.5"/>
<rect x="690.0" y="385.0" width="1.3" height="55.0" fill="#57534e" opacity="0.5"/>
<rect x="691.6" y="396.2" width="1.3" height="43.8" fill="#57534e" opacity="0.5"/>
<rect x="693.3" y="395.7" width="1.3" height="44.3" fill="#57534e" opacity="0.5"/>
<line x1="64" y1="401.2" x2="694" y2="401.2" stroke="#eb6834" stroke-width="1.4" stroke-dasharray="4 3"/>
<text x="68" y="395.2" font-size="10" font-weight="700" fill="#eb6834" text-anchor="start" paint-order="stroke" stroke="#fff" stroke-width="3.5" stroke-linejoin="round">$10,878（8 月中位）</text>
<line x1="64" y1="437.7" x2="694" y2="437.7" stroke="#eb6834" stroke-width="1.4" stroke-dasharray="4 3"/>
<text x="68" y="431.7" font-size="10" font-weight="700" fill="#eb6834" text-anchor="start" paint-order="stroke" stroke="#fff" stroke-width="3.5" stroke-linejoin="round">$2,207（8 月最低）</text>
<text x="64.0" y="454" font-size="9" fill="#57534e" text-anchor="middle">2025-08</text>
<text x="165.1" y="454" font-size="9" fill="#57534e" text-anchor="middle">2025-10</text>
<text x="266.1" y="454" font-size="9" fill="#57534e" text-anchor="middle">2025-12</text>
<text x="367.2" y="454" font-size="9" fill="#57534e" text-anchor="middle">2026-02</text>
<text x="468.3" y="454" font-size="9" fill="#57534e" text-anchor="middle">2026-04</text>
<text x="569.3" y="454" font-size="9" fill="#57534e" text-anchor="middle">2026-06</text>
<text x="694.0" y="454" font-size="9" fill="#57534e" text-anchor="end">2026-09</text>
</svg>