<svg xmlns="http://www.w3.org/2000/svg" width="760" height="420" viewBox="0 0 760 420" font-family="-apple-system,BlinkMacSystemFont,Segoe UI,Helvetica,Arial,sans-serif"><rect width="760" height="420" fill="#fcfcfb"/><text x="28" y="34" font-size="16" font-weight="700" fill="#1c1917" text-anchor="start">2026 年 9 月真实占用容量：一次矿工奖励 cell 归集</text><text x="28" y="55" font-size="12" font-weight="400" fill="#57534e" text-anchor="start">约每 11 小时采样一次 · 阴影为 9/28 06:00 – 9/29 12:00（UTC）的 30 笔归集交易窗口</text><line x1="76" y1="360.0" x2="716" y2="360.0" stroke="#e7e5e4"/><text x="68" y="364.0" font-size="11" font-weight="400" fill="#57534e" text-anchor="end">140M</text><line x1="76" y1="293.0" x2="716" y2="293.0" stroke="#e7e5e4"/><text x="68" y="297.0" font-size="11" font-weight="400" fill="#57534e" text-anchor="end">144M</text><line x1="76" y1="226.0" x2="716" y2="226.0" stroke="#e7e5e4"/><text x="68" y="230.0" font-size="11" font-weight="400" fill="#57534e" text-anchor="end">148M</text><line x1="76" y1="159.0" x2="716" y2="159.0" stroke="#e7e5e4"/><text x="68" y="163.0" font-size="11" font-weight="400" fill="#57534e" text-anchor="end">152M</text><line x1="76" y1="92.0" x2="716" y2="92.0" stroke="#e7e5e4"/><text x="68" y="96.0" font-size="11" font-weight="400" fill="#57534e" text-anchor="end">156M</text><rect x="657.3" y="92" width="26.7" height="268" fill="#eb6834" opacity="0.10"/><path d="M76.0 146.6 L85.8 148.8 L95.8 145.5 L106.3 147.9 L116.2 144.3 L127.8 147.6 L138.0 144.2 L147.5 143.9 L157.0 141.2 L167.2 144.4 L178.0 141.2 L189.1 143.8 L200.4 140.6 L210.2 143.3 L220.9 140.3 L231.6 143.2 L243.1 139.9 L252.9 142.7 L263.1 139.9 L272.4 143.7 L282.4 140.5 L292.4 142.6 L302.4 139.5 L312.6 136.1 L323.7 139.2 L335.2 141.2 L345.0 138.4 L355.4 141.3 L365.7 138.3 L375.2 134.9 L385.3 137.8 L395.5 134.6 L405.4 137.1 L417.1 134.0 L426.9 136.4 L437.7 133.2 L448.1 136.3 L458.7 133.0 L468.6 135.2 L479.1 132.5 L488.6 134.8 L498.7 131.2 L509.2 132.5 L519.3 130.0 L530.1 132.9 L540.5 129.5 L550.5 132.2 L560.4 129.5 L570.8 132.3 L585.4 132.3 L595.9 134.0 L609.1 131.7 L620.4 133.7 L631.5 130.9 L646.0 128.5 L657.7 138.8 L672.6 152.5 L684.5 302.5 L694.5 301.1 L704.7 300.9 L716.0 297.5 L716.0 297.5" fill="none" stroke="#2a78d6" stroke-width="1.8"/><text x="75.99907333239827" y="378" font-size="11" font-weight="400" fill="#57534e" text-anchor="middle">9/1</text><text x="225.33255651773788" y="378" font-size="11" font-weight="400" fill="#57534e" text-anchor="middle">9/8</text><text x="374.6660397030775" y="378" font-size="11" font-weight="400" fill="#57534e" text-anchor="middle">9/15</text><text x="523.9995228884171" y="378" font-size="11" font-weight="400" fill="#57534e" text-anchor="middle">9/22</text><text x="673.3330060737568" y="378" font-size="11" font-weight="400" fill="#57534e" text-anchor="middle">9/29</text><text x="651.3329900181847" y="120.8499999999998" font-size="11" font-weight="400" fill="#1c1917" text-anchor="end">9/27 17:17：153.82M</text><text x="651.3329900181847" y="307.0499999999999" font-size="11" font-weight="400" fill="#1c1917" text-anchor="end">9/29 12:31：143.43M</text><text x="28" y="400" font-size="12" font-weight="400" fill="#57534e" text-anchor="start">来源：CKB 主网节点区块头 dao 字段（U − 5,040,000,000）</text></svg>