<svg xmlns="http://www.w3.org/2000/svg" viewBox="0 0 680 330" width="100%" role="img" aria-label="Orchard → Ironwood 迁移（2026-07-01 至 10-05，百万 ZEC）">
<style> .t{font:600 15px -apple-system,BlinkMacSystemFont,"PingFang SC","Microsoft YaHei",sans-serif;fill:#1c1917} .s{font:400 11.5px -apple-system,BlinkMacSystemFont,"PingFang SC","Microsoft YaHei",sans-serif;fill:#57534e} .l{font:400 11px -apple-system,BlinkMacSystemFont,"PingFang SC","Microsoft YaHei",sans-serif;fill:#57534e} .v{font:600 11px -apple-system,BlinkMacSystemFont,"PingFang SC","Microsoft YaHei",sans-serif;fill:#1c1917} .ax{stroke:#e7e5e4;stroke-width:1}</style>
<rect width="680" height="330" fill="none"/><text x="0" y="16" class="t">Orchard → Ironwood 迁移（2026-07-01 至 10-05，百万 ZEC）</text><text x="0" y="34" class="s">节点 valuePools 记账项；Ironwood 于 7/28（区块 3,428,143）激活，Orchard 自此只出不进</text>
<line x1="54" y1="250.0" x2="660" y2="250.0" class="ax"/><text x="46" y="254.0" class="l" text-anchor="end">0</text>
<line x1="54" y1="208.7" x2="660" y2="208.7" class="ax"/><text x="46" y="212.7" class="l" text-anchor="end">1</text>
<line x1="54" y1="167.3" x2="660" y2="167.3" class="ax"/><text x="46" y="171.3" class="l" text-anchor="end">2</text>
<line x1="54" y1="126.0" x2="660" y2="126.0" class="ax"/><text x="46" y="130.0" class="l" text-anchor="end">3</text>
<line x1="54" y1="84.7" x2="660" y2="84.7" class="ax"/><text x="46" y="88.7" class="l" text-anchor="end">4</text>
<text x="54" y="267" class="l" text-anchor="middle">7/1</text>
<text x="249" y="267" class="l" text-anchor="middle">8/1</text>
<text x="443" y="267" class="l" text-anchor="middle">9/1</text>
<text x="632" y="267" class="l" text-anchor="middle">10/1</text>
<polyline points="54.0,94.0 60.3,94.4 66.6,94.4 72.9,94.4 79.2,94.3 85.4,94.3 91.7,94.3 98.0,94.4 104.2,94.4 110.5,94.4 116.7,94.3 123.0,94.3 129.3,94.2 135.6,94.2 142.0,94.2 148.2,94.3 154.5,94.4 160.7,94.4 167.0,94.2 173.3,94.2 179.5,94.1 185.9,93.6 192.1,94.2 198.4,94.2 204.7,94.2 210.9,94.2 217.2,94.4 223.6,98.7 229.8,103.7 236.0,110.1 242.3,118.0 248.6,122.0 254.9,125.6 261.2,129.2 267.5,133.0 273.8,139.4 280.0,147.3 286.4,156.2 292.6,166.5 298.9,175.1 305.2,185.3 311.4,193.5 317.8,201.1 324.0,207.4 330.3,212.0 336.5,212.7 342.9,214.2 349.1,218.5 355.4,219.1 361.7,219.3 367.9,219.8 374.3,220.0 380.5,220.6 386.8,226.8 393.1,228.2 399.4,228.7 405.7,229.2 412.0,229.4 418.2,230.1 424.6,230.3 430.8,230.4 437.1,230.4 443.4,230.6 449.7,230.7 455.9,230.8 462.2,231.1 468.5,231.2 474.7,231.3 481.0,231.7 487.3,232.0 493.6,232.1 499.9,232.3 506.2,232.6 512.4,232.6 518.7,232.7 525.0,232.7 531.2,232.8 537.5,232.8 543.8,232.9 550.1,232.9 556.4,233.0 562.7,233.0 569.0,233.1 575.2,233.7 581.5,233.8 587.8,234.1 594.0,234.1 600.3,234.1 606.6,234.2 612.8,234.3 619.1,234.3 625.5,234.3 631.7,234.3 638.1,234.4 644.3,234.4 650.6,234.4 656.9,234.4" fill="none" stroke="#eb6834" stroke-width="2"/>
<polyline points="54.0,250.0 60.3,250.0 66.6,250.0 72.9,250.0 79.2,250.0 85.4,250.0 91.7,250.0 98.0,250.0 104.2,250.0 110.5,250.0 116.7,250.0 123.0,250.0 129.3,250.0 135.6,250.0 142.0,250.0 148.2,250.0 154.5,250.0 160.7,250.0 167.0,250.0 173.3,250.0 179.5,250.0 185.9,250.0 192.1,250.0 198.4,250.0 204.7,250.0 210.9,250.0 217.2,250.0 223.6,250.0 229.8,244.5 236.0,237.3 242.3,228.6 248.6,223.0 254.9,219.2 261.2,215.4 267.5,210.6 273.8,204.2 280.0,196.3 286.4,187.3 292.6,176.8 298.9,167.9 305.2,157.5 311.4,149.2 317.8,141.7 324.0,135.0 330.3,130.2 336.5,128.9 342.9,127.4 349.1,123.0 355.4,122.8 361.7,122.2 367.9,121.8 374.3,121.6 380.5,120.8 386.8,108.9 393.1,100.9 399.4,95.7 405.7,95.2 412.0,95.1 418.2,94.0 424.6,93.7 430.8,91.9 437.1,91.5 443.4,91.2 449.7,91.0 455.9,90.9 462.2,90.4 468.5,90.3 474.7,90.1 481.0,89.4 487.3,88.8 493.6,88.5 499.9,87.6 506.2,87.3 512.4,87.1 518.7,87.0 525.0,87.0 531.2,87.0 537.5,86.9 543.8,86.6 550.1,85.9 556.4,85.8 562.7,85.7 569.0,85.7 575.2,84.9 581.5,84.9 587.8,84.8 594.0,84.7 600.3,85.1 606.6,85.1 612.8,85.1 619.1,85.1 625.5,84.3 631.7,82.1 638.1,82.1 644.3,82.2 650.6,82.2 656.9,82.2" fill="none" stroke="#1baf7a" stroke-width="2"/>
<text x="652.9" y="74.2" class="v" text-anchor="end">Ironwood 4.06</text><text x="652.9" y="226.4" class="v" text-anchor="end">Orchard 0.377</text>
<rect x="54" y="284" width="12" height="10" fill="#eb6834"/><text x="71" y="293" class="l">Orchard（已关闭）</text><rect x="194" y="284" width="12" height="10" fill="#1baf7a"/><text x="211" y="293" class="l">Ironwood</text>
<text x="0" y="322" class="s">9 月 Orchard 470,499 → 378,875（−91,624），残留下降在放缓：10/1–10/5 只少 1,660 枚。</text></svg>