<svg xmlns="http://www.w3.org/2000/svg" viewBox="0 0 720 368" width="720" height="368" font-family='-apple-system,BlinkMacSystemFont,"Segoe UI","PingFang SC","Hiragino Sans GB","Microsoft YaHei",Helvetica,Arial,sans-serif'><rect width="720" height="368" fill="#fff"/><text x="24" y="30" font-size="16" font-weight="700" fill="#1c1917">同一个期望市值，四种供应假设，四个不同答案</text><text x="24" y="50" font-size="11.5" fill="#57534e">期望市值 $216.25 亿固定不变，只改 2029 年流通量假设。这就是本报告不给目标价的理由</text>
<line x1="250.0" y1="92" x2="250.0" y2="248" stroke="#e7e5e4" stroke-width="1"/>
<line x1="328.0" y1="92" x2="328.0" y2="248" stroke="#e7e5e4" stroke-width="1"/>
<line x1="406.0" y1="92" x2="406.0" y2="248" stroke="#e7e5e4" stroke-width="1"/>
<line x1="484.0" y1="92" x2="484.0" y2="248" stroke="#e7e5e4" stroke-width="1"/>
<line x1="562.0" y1="92" x2="562.0" y2="248" stroke="#e7e5e4" stroke-width="1"/>
<line x1="640.0" y1="92" x2="640.0" y2="248" stroke="#e7e5e4" stroke-width="1"/>
<text x="250.0" y="266" font-size="10.5" text-anchor="middle" fill="#57534e">$0</text>
<text x="445.0" y="266" font-size="10.5" text-anchor="middle" fill="#57534e">网格线等距递增 →</text>
<rect x="250.0" y="104" width="240.2" height="26" rx="3" fill="#0f9b7e" opacity="0.9"/>
<text x="236" y="116" font-size="11" font-weight="700" text-anchor="end" fill="#1c1917">当前流通 + 核心贡献者剩余</text>
<text x="236" y="128" font-size="9.5" text-anchor="end" fill="#57534e">3.51 亿（36.8%）</text>
<text x="499.2" y="122" font-size="11.5" font-weight="700" fill="#1c1917">$61.6 （-29%）</text>
<rect x="250.0" y="142" width="176.3" height="26" rx="3" fill="#2a78d6" opacity="0.9"/>
<text x="236" y="154" font-size="11" font-weight="700" text-anchor="end" fill="#1c1917">占总量 50%</text>
<text x="236" y="166" font-size="9.5" text-anchor="end" fill="#57534e">4.78 亿</text>
<text x="435.3" y="160" font-size="11.5" font-weight="700" fill="#1c1917">$45.2 （-48%）</text>
<rect x="250.0" y="180" width="126.0" height="26" rx="3" fill="#e34948" opacity="0.9"/>
<text x="236" y="192" font-size="11" font-weight="700" text-anchor="end" fill="#1c1917">占总量 70%（初稿假设，已撤回）</text>
<text x="236" y="204" font-size="9.5" text-anchor="end" fill="#57534e">6.69 亿</text>
<text x="385.0" y="198" font-size="11.5" font-weight="700" fill="#1c1917">$32.3 （-63%）</text>
<rect x="250.0" y="218" width="88.1" height="26" rx="3" fill="#e34948" opacity="0.9"/>
<text x="236" y="230" font-size="11" font-weight="700" text-anchor="end" fill="#1c1917">完全流通</text>
<text x="236" y="242" font-size="9.5" text-anchor="end" fill="#57534e">9.553 亿</text>
<text x="347.1" y="236" font-size="11.5" font-weight="700" fill="#1c1917">$22.6 （-74%）</text>
<line x1="589.9" y1="92" x2="589.9" y2="248" stroke="#1c1917" stroke-width="1.8" stroke-dasharray="5,4"/>
<text x="581.9" y="86" font-size="11.5" font-weight="700" text-anchor="end" fill="#1c1917">现价 $87.16</text>
<line x1="250" y1="248" x2="640" y2="248" stroke="#57534e" stroke-width="1.5"/>
<text x="24" y="310" font-size="11.5" font-weight="700" fill="#1c1917">方向稳健（四种假设下都低于现价），幅度不可信（相差 45 个百分点）。</text>
<text x="24" y="330" font-size="10.5" fill="#57534e">唯一有报告自身数据支撑的是第一行（36.8%）。初稿采用的 70% 假设，其 71% 的增量没有来源，已撤回。</text>
<text x="24" y="348" font-size="10.5" fill="#57534e">不依赖流通量假设的可靠锚是 FDV 口径：117.3 倍（BNB 465-699 倍、ETH 约 2,400 倍）。</text>
</svg>