<svg xmlns="http://www.w3.org/2000/svg" width="760" height="400" viewBox="0 0 760 400" font-family="-apple-system,BlinkMacSystemFont,Segoe UI,Helvetica,Arial,sans-serif"><rect width="760" height="400" fill="#fcfcfb"/><text x="28" y="34" font-size="16" font-weight="700" fill="#1c1917">2026 年 8 月：真实占用容量的逐日轨迹</text><text x="28" y="55" font-size="12" fill="#57534e">每 9,565 个区块采样一次 · 8 月 14 日至 16 日的两天多里下降 9,018,873 CKB，此后未恢复</text><line x1="64" y1="342.0" x2="720" y2="342.0" stroke="#e7e5e4" stroke-width="1"/><line x1="64" y1="278.5" x2="720" y2="278.5" stroke="#e7e5e4" stroke-width="1"/><line x1="64" y1="215.0" x2="720" y2="215.0" stroke="#e7e5e4" stroke-width="1"/><line x1="64" y1="151.5" x2="720" y2="151.5" stroke="#e7e5e4" stroke-width="1"/><line x1="64" y1="88.0" x2="720" y2="88.0" stroke="#e7e5e4" stroke-width="1"/><rect x="360.3" y="88" width="42.3" height="254" fill="#eb6834" opacity="0.10"/><path d="M64.0 146.7 L85.2 145.9 L106.3 144.3 L127.5 143.7 L148.6 141.5 L169.8 140.3 L191.0 132.0 L212.1 130.6 L233.3 128.2 L254.5 125.6 L275.6 122.9 L296.8 120.9 L317.9 118.4 L339.1 115.6 L360.3 113.6 L381.4 157.9 L402.6 292.3 L423.7 289.5 L444.9 288.0 L466.1 285.8 L487.2 283.1 L508.4 280.8 L529.5 280.3 L550.7 284.2 L571.9 277.1 L593.0 296.8 L614.2 295.5 L635.4 294.0 L656.5 292.1 L677.7 291.3 L698.8 283.5 L720.0 286.1" fill="none" stroke="#2a78d6" stroke-width="2" stroke-linejoin="round"/><circle cx="360.3" cy="113.6" r="5" fill="#eb6834" stroke="#fcfcfb" stroke-width="2"/><text x="351.3" y="95.6" font-size="11.5" fill="#eb6834" font-weight="700" text-anchor="end">采样期最高 161,446,936</text><text x="351.3" y="110.6" font-size="10.5" fill="#57534e" text-anchor="end">08-14</text><circle cx="402.6" cy="292.3" r="5" fill="#eb6834" stroke="#fcfcfb" stroke-width="2"/><text x="411.6" y="322.3" font-size="11.5" fill="#eb6834" font-weight="700" text-anchor="start">本轮下降结束 152,428,063</text><text x="411.6" y="337.3" font-size="10.5" fill="#57534e" text-anchor="start">08-16</text><circle cx="593.0" cy="296.8" r="5" fill="#57534e" stroke="#fcfcfb" stroke-width="2"/><text x="593.0" y="330.8" font-size="11.5" fill="#57534e" font-weight="700" text-anchor="middle">采样期最低 152,200,905</text><text x="593.0" y="345.8" font-size="10.5" fill="#57534e" text-anchor="middle">08-26</text><text x="64.0" y="362.0" font-size="11" fill="#57534e" text-anchor="middle">08-01</text><text x="212.1" y="362.0" font-size="11" fill="#57534e" text-anchor="middle">08-07</text><text x="381.4" y="362.0" font-size="11" fill="#57534e" text-anchor="middle">08-15</text><text x="550.7" y="362.0" font-size="11" fill="#57534e" text-anchor="middle">08-24</text><text x="720.0" y="362.0" font-size="11" fill="#57534e" text-anchor="middle">08-31</text><text x="28" y="386" font-size="10.5" fill="#57534e">纵轴单位 CKB（已剔除虚拟基数）· 抽样归因显示释放的占用容量里 91.5% 来自 RGB++ lock + xUDT 的 cell</text></svg>