<svg xmlns="http://www.w3.org/2000/svg" width="780" height="360" viewBox="0 0 780 360" font-family="-apple-system,BlinkMacSystemFont,Segoe UI,Helvetica,Arial,sans-serif"><rect width="780" height="360" fill="#fcfcfb"/><text x="28" y="34" font-size="16" font-weight="700" fill="#1c1917" text-anchor="start">masterchain 出块间隔（按月）：2026-04-09 之后稳定在约 0.41 秒</text><text x="28" y="55" font-size="12" font-weight="400" fill="#57534e" text-anchor="start">出块间隔 = 1 ÷ 区间内 masterchain 块/秒 · config 30 的 target_rate 仍为 400 ms（默认 2,400 ms）</text><line x1="70" y1="300.0" x2="736" y2="300.0" stroke="#e7e5e4"/><text x="62" y="304.0" font-size="11" font-weight="400" fill="#57534e" text-anchor="end">0.0s</text><line x1="70" y1="247.5" x2="736" y2="247.5" stroke="#e7e5e4"/><text x="62" y="251.5" font-size="11" font-weight="400" fill="#57534e" text-anchor="end">0.7s</text><line x1="70" y1="195.0" x2="736" y2="195.0" stroke="#e7e5e4"/><text x="62" y="199.0" font-size="11" font-weight="400" fill="#57534e" text-anchor="end">1.4s</text><line x1="70" y1="142.5" x2="736" y2="142.5" stroke="#e7e5e4"/><text x="62" y="146.5" font-size="11" font-weight="400" fill="#57534e" text-anchor="end">2.1s</text><line x1="70" y1="90.0" x2="736" y2="90.0" stroke="#e7e5e4"/><text x="62" y="94.0" font-size="11" font-weight="400" fill="#57534e" text-anchor="end">2.8s</text><rect x="78.0" y="106.7" width="50.6" height="193.3" rx="4" fill="#2a78d6"/><text x="103.3" y="100.70103092783506" font-size="11" font-weight="400" fill="#1c1917" text-anchor="middle">2.58</text><text x="103.3" y="316" font-size="10.5" font-weight="400" fill="#57534e" text-anchor="middle">25-09至12</text><rect x="144.6" y="120.1" width="50.6" height="179.9" rx="4" fill="#2a78d6"/><text x="169.89999999999998" y="114.1438848920863" font-size="11" font-weight="400" fill="#1c1917" text-anchor="middle">2.40</text><text x="169.89999999999998" y="316" font-size="10.5" font-weight="400" fill="#57534e" text-anchor="middle">25-12至02</text><rect x="211.2" y="121.9" width="50.6" height="178.1" rx="4" fill="#2a78d6"/><text x="236.5" y="115.85273159144893" font-size="11" font-weight="400" fill="#1c1917" text-anchor="middle">2.38</text><text x="236.5" y="316" font-size="10.5" font-weight="400" fill="#57534e" text-anchor="middle">26-02</text><rect x="277.8" y="123.9" width="50.6" height="176.1" rx="4" fill="#2a78d6"/><text x="303.09999999999997" y="117.94366197183095" font-size="11" font-weight="400" fill="#1c1917" text-anchor="middle">2.35</text><text x="303.09999999999997" y="316" font-size="10.5" font-weight="400" fill="#57534e" text-anchor="middle">26-03</text><rect x="344.4" y="260.4" width="50.6" height="39.6" rx="4" fill="#57534e"/><text x="369.7" y="254.40126715945087" font-size="11" font-weight="400" fill="#1c1917" text-anchor="middle">0.53</text><text x="369.7" y="316" font-size="10.5" font-weight="400" fill="#57534e" text-anchor="middle">26-04</text><rect x="411.0" y="269.4" width="50.6" height="30.6" rx="4" fill="#eb6834"/><text x="436.3" y="263.4376528117359" font-size="11" font-weight="400" fill="#1c1917" text-anchor="middle">0.41</text><text x="436.3" y="316" font-size="10.5" font-weight="400" fill="#57534e" text-anchor="middle">26-05</text><rect x="477.6" y="269.3" width="50.6" height="30.7" rx="4" fill="#eb6834"/><text x="502.9" y="263.2748873412536" font-size="11" font-weight="400" fill="#1c1917" text-anchor="middle">0.41</text><text x="502.9" y="316" font-size="10.5" font-weight="400" fill="#57534e" text-anchor="middle">26-06</text><rect x="544.2" y="269.0" width="50.6" height="31.0" rx="4" fill="#eb6834"/><text x="569.4999999999999" y="262.96979726934217" font-size="11" font-weight="400" fill="#1c1917" text-anchor="middle">0.41</text><text x="569.4999999999999" y="316" font-size="10.5" font-weight="400" fill="#57534e" text-anchor="middle">26-07</text><rect x="610.8" y="269.5" width="50.6" height="30.5" rx="4" fill="#eb6834"/><text x="636.0999999999999" y="263.4749694749695" font-size="11" font-weight="400" fill="#1c1917" text-anchor="middle">0.41</text><text x="636.0999999999999" y="316" font-size="10.5" font-weight="400" fill="#57534e" text-anchor="middle">26-08</text><rect x="677.4" y="269.3" width="50.6" height="30.7" rx="4" fill="#eb6834"/><text x="702.6999999999999" y="263.3126022913257" font-size="11" font-weight="400" fill="#1c1917" text-anchor="middle">0.41</text><text x="702.6999999999999" y="316" font-size="10.5" font-weight="400" fill="#57534e" text-anchor="middle">26-09</text><text x="28" y="345" font-size="12" font-weight="400" fill="#57534e" text-anchor="start">26-04 为切换当月（4/09 07:00–08:00 UTC），区间均值不代表任一制度 · 来源：toncenter v3 masterchain seqno</text></svg>